<svg xmlns="http://www.w3.org/2000/svg" xmlns:xlink="http://www.w3.org/1999/xlink" contentStyleType="text/css" height="488px" preserveAspectRatio="none" style="width:548px;height:488px;background:#FFFFFF;" version="1.1" viewBox="0 0 548 488" width="548px" zoomAndPan="magnify"><defs/><g><!--class User--><g id="elem_User"><rect codeLine="45" fill="#F1F1F1" height="23.4063" id="User" rx="2.5" ry="2.5" style="stroke:#000000;stroke-width:1.0;" width="31.3359" x="211" y="251.5"/><text fill="#000000" font-family="Arial" font-size="12" lengthAdjust="spacing" textLength="25.3359" x="214" y="267.3633">User</text></g><!--class Ticket--><g id="elem_Ticket"><rect codeLine="80" fill="#F1F1F1" height="105.8906" id="Ticket" rx="2.5" ry="2.5" style="stroke:#000000;stroke-width:1.0;" width="149.7441" x="171.5" y="376"/><text fill="#000000" font-family="Arial" font-size="12" lengthAdjust="spacing" textLength="32.0039" x="230.3701" y="391.8633">Ticket</text><line style="stroke:#000000;stroke-width:1.0;" x1="172.5" x2="320.2441" y1="399.4063" y2="399.4063"/><text fill="#000000" font-family="sans-serif" font-size="14" lengthAdjust="spacing" textLength="75.4756" x="177.5" y="418.5137">-type: String</text><text fill="#000000" font-family="sans-serif" font-size="14" lengthAdjust="spacing" textLength="84.8271" x="177.5" y="437.1348">-price: double</text><text fill="#000000" font-family="sans-serif" font-size="14" lengthAdjust="spacing" textLength="137.7441" x="177.5" y="455.7559">-available_number: int</text><text fill="#000000" font-family="sans-serif" font-size="14" lengthAdjust="spacing" textLength="108.165" x="177.5" y="474.377">-sold_number: int</text></g><!--class Administrator--><g id="elem_Administrator"><rect codeLine="36" fill="#F1F1F1" height="23.4063" id="Administrator" rx="2.5" ry="2.5" style="stroke:#000000;stroke-width:1.0;" width="76.6875" x="7" y="251.5"/><text fill="#000000" font-family="Arial" font-size="12" lengthAdjust="spacing" textLength="70.6875" x="10" y="267.3633">Administrator</text></g><!--class Organiser--><g id="elem_Organiser"><rect codeLine="39" fill="#F1F1F1" height="87.2695" id="Organiser" rx="2.5" ry="2.5" style="stroke:#000000;stroke-width:1.0;" width="155.165" x="107" y="35"/><text fill="#000000" font-family="Arial" font-size="12" lengthAdjust="spacing" textLength="52.6875" x="158.2388" y="50.8633">Organiser</text><line style="stroke:#000000;stroke-width:1.0;" x1="108" x2="261.165" y1="58.4063" y2="58.4063"/><text fill="#000000" font-family="sans-serif" font-size="14" lengthAdjust="spacing" textLength="98.8203" x="113" y="77.5137">-address: String</text><text fill="#000000" font-family="sans-serif" font-size="14" lengthAdjust="spacing" textLength="143.165" x="113" y="96.1348">-companyName: String</text><text fill="#000000" font-family="sans-serif" font-size="14" lengthAdjust="spacing" textLength="137.7373" x="113" y="114.7559">-phoneNumber: String</text></g><!--class Account--><g id="elem_Account"><rect codeLine="50" fill="#F1F1F1" height="87.2695" id="Account" rx="2.5" ry="2.5" style="stroke:#000000;stroke-width:1.0;" width="120.9307" x="15" y="385.5"/><text fill="#000000" font-family="Arial" font-size="12" lengthAdjust="spacing" textLength="43.3594" x="53.7856" y="401.3633">Account</text><line style="stroke:#000000;stroke-width:1.0;" x1="16" x2="134.9307" y1="408.9063" y2="408.9063"/><text fill="#000000" font-family="sans-serif" font-size="14" lengthAdjust="spacing" textLength="84.0342" x="21" y="428.0137">-name: String</text><text fill="#000000" font-family="sans-serif" font-size="14" lengthAdjust="spacing" textLength="82.4688" x="21" y="446.6348">-email: String</text><text fill="#000000" font-family="sans-serif" font-size="14" lengthAdjust="spacing" textLength="108.9307" x="21" y="465.2559">-password: String</text></g><!--class Venue--><g id="elem_Venue"><rect codeLine="63" fill="#F1F1F1" height="143.1328" id="Venue" rx="2.5" ry="2.5" style="stroke:#000000;stroke-width:1.0;" width="196.4268" x="345.5" y="7"/><text fill="#000000" font-family="Arial" font-size="12" lengthAdjust="spacing" textLength="34.6992" x="426.3638" y="22.8633">Venue</text><line style="stroke:#000000;stroke-width:1.0;" x1="346.5" x2="540.9268" y1="30.4063" y2="30.4063"/><text fill="#000000" font-family="sans-serif" font-size="14" lengthAdjust="spacing" textLength="84.0342" x="351.5" y="49.5137">-name: String</text><text fill="#000000" font-family="sans-serif" font-size="14" lengthAdjust="spacing" textLength="98.8203" x="351.5" y="68.1348">-address: String</text><text fill="#000000" font-family="sans-serif" font-size="14" lengthAdjust="spacing" textLength="131.4961" x="351.5" y="86.7559">-contactName: String</text><text fill="#000000" font-family="sans-serif" font-size="14" lengthAdjust="spacing" textLength="184.4268" x="351.5" y="105.377">-contactPhoneNumber: String</text><text fill="#000000" font-family="sans-serif" font-size="14" lengthAdjust="spacing" textLength="129.1582" x="351.5" y="123.998">-contactEmail: String</text><text fill="#000000" font-family="sans-serif" font-size="14" lengthAdjust="spacing" textLength="78.5859" x="351.5" y="142.6191">-capacity: int</text></g><!--class Event--><g id="elem_Event"><rect codeLine="72" fill="#F1F1F1" height="105.8906" id="Event" rx="2.5" ry="2.5" style="stroke:#000000;stroke-width:1.0;" width="128.7168" x="346" y="210"/><text fill="#000000" font-family="Arial" font-size="12" lengthAdjust="spacing" textLength="30.6855" x="395.0156" y="225.8633">Event</text><line style="stroke:#000000;stroke-width:1.0;" x1="347" x2="473.7168" y1="233.4063" y2="233.4063"/><text fill="#000000" font-family="sans-serif" font-size="14" lengthAdjust="spacing" textLength="84.0342" x="352" y="252.5137">-name: String</text><text fill="#000000" font-family="sans-serif" font-size="14" lengthAdjust="spacing" textLength="116.7168" x="352" y="271.1348">-description: String</text><text fill="#000000" font-family="sans-serif" font-size="14" lengthAdjust="spacing" textLength="69.2617" x="352" y="289.7559">-date: Date</text><text fill="#000000" font-family="sans-serif" font-size="14" lengthAdjust="spacing" textLength="70" x="352" y="308.377">-time: Time</text></g><!--link Administrator to Account--><g id="link_Administrator_Account"><path codeLine="89" d="M49.5,274.67 C49.5,297.33 49.5,330.3 49.5,367.49 " fill="none" id="Administrator-to-Account" style="stroke:#000000;stroke-width:1.0;"/><polygon fill="none" points="49.5,385.49,55.5,367.49,43.5,367.49,49.5,385.49" style="stroke:#000000;stroke-width:1.0;"/></g><!--link Organiser to Account--><g id="link_Organiser_Account"><path codeLine="90" d="M116.67,122.18 C116.67,189.53 116.67,299.97 116.67,367.32 " fill="none" id="Organiser-to-Account" style="stroke:#000000;stroke-width:1.0;"/><polygon fill="none" points="116.67,385.32,122.67,367.32,110.67,367.32,116.67,385.32" style="stroke:#000000;stroke-width:1.0;"/></g><!--link User to Account--><g id="link_User_Account"><path codeLine="91" d="M210.85,263 C182.68,263 126.33,263 126.33,263 C126.33,263 126.33,318.2 126.33,367.39 " fill="none" id="User-to-Account" style="stroke:#000000;stroke-width:1.0;"/><polygon fill="none" points="126.33,385.39,132.33,367.39,120.33,367.39,126.33,385.39" style="stroke:#000000;stroke-width:1.0;"/></g><!--link Organiser to Event--><g id="link_Organiser_Event"><path codeLine="95" d="M252,134.2 C252,179.26 252,231 252,231 C252,231 295.8,231 339.57,231 " fill="none" id="Organiser-Event" style="stroke:#000000;stroke-width:1.0;"/><polygon fill="none" points="252,122.2,248,128.2,252,134.2,256,128.2,252,122.2" style="stroke:#000000;stroke-width:1.0;"/><polygon fill="#000000" points="345.57,231,336.57,227,340.57,231,336.57,235,345.57,231" style="stroke:#000000;stroke-width:1.0;"/><text fill="#000000" font-family="sans-serif" font-size="12" lengthAdjust="spacing" textLength="6.6738" x="256.3202" y="143.3643">1</text><text fill="#000000" font-family="sans-serif" font-size="12" lengthAdjust="spacing" textLength="77.373" x="260.6763" y="225.966">0..* -organises</text></g><!--link User to Ticket--><g id="link_User_Ticket"><path codeLine="99" d="M226.5,286.67 C226.5,307.41 226.5,333.87 226.5,369.77 " fill="none" id="User-Ticket" style="stroke:#000000;stroke-width:1.0;"/><polygon fill="none" points="226.5,274.67,222.5,280.67,226.5,286.67,230.5,280.67,226.5,274.67" style="stroke:#000000;stroke-width:1.0;"/><polygon fill="#000000" points="226.5,375.77,230.5,366.77,226.5,370.77,222.5,366.77,226.5,375.77" style="stroke:#000000;stroke-width:1.0;"/><text fill="#000000" font-family="sans-serif" font-size="12" lengthAdjust="spacing" textLength="6.6738" x="219.3322" y="295.6412">1</text><text fill="#000000" font-family="sans-serif" font-size="12" lengthAdjust="spacing" textLength="59.3496" x="160.2742" y="364.8781">-tickets 0..*</text></g><!--reverse link Venue to Event--><g id="link_Venue_Event"><path codeLine="103" d="M389,156.1 C389,175.95 389,191.15 389,209.75 " fill="none" id="Venue-backto-Event" style="stroke:#000000;stroke-width:1.0;"/><polygon fill="#000000" points="389,150.1,385,159.1,389,155.1,393,159.1,389,150.1" style="stroke:#000000;stroke-width:1.0;"/><text fill="#000000" font-family="sans-serif" font-size="12" lengthAdjust="spacing" textLength="46.6992" x="335.0219" y="171.2491">1 -venue</text></g><!--link Venue to Event--><g id="link_Venue_Event"><path codeLine="104" d="M432,150.1 C432,169.95 432,185.15 432,203.75 " fill="none" id="Venue-to-Event" style="stroke:#000000;stroke-width:1.0;"/><polygon fill="#000000" points="432,209.75,436,200.75,432,204.75,428,200.75,432,209.75" style="stroke:#000000;stroke-width:1.0;"/><text fill="#000000" font-family="sans-serif" font-size="12" lengthAdjust="spacing" textLength="60.6973" x="370.8236" y="198.8552">0..* -events</text></g><!--link Event to Ticket--><g id="link_Event_Ticket"><path codeLine="106" d="M345.93,303 C322.5,303 301.67,303 301.67,303 C301.67,303 301.67,335.49 301.67,369.93 " fill="none" id="Event-to-Ticket" style="stroke:#000000;stroke-width:1.0;"/><polygon fill="#000000" points="301.67,375.93,305.67,366.93,301.67,370.93,297.67,366.93,301.67,375.93" style="stroke:#000000;stroke-width:1.0;"/><text fill="#000000" font-family="sans-serif" font-size="12" lengthAdjust="spacing" textLength="59.3496" x="246.4847" y="365.0616">0..* -tickets</text></g><!--reverse link Event to Ticket--><g id="link_Event_Ticket"><path codeLine="107" d="M339.79,289 C307.75,289 281.83,289 281.83,289 C281.83,289 281.83,336.11 281.83,375.67 " fill="none" id="Event-backto-Ticket" style="stroke:#000000;stroke-width:1.0;"/><polygon fill="#000000" points="345.79,289,336.79,285,340.79,289,336.79,293,345.79,289" style="stroke:#000000;stroke-width:1.0;"/><text fill="#000000" font-family="sans-serif" font-size="12" lengthAdjust="spacing" textLength="43.3594" x="294.6037" y="288.7635">1 -event</text></g><!--SRC=[ZLLDRzim3BtxLn0vBC005qbxAuO1MTi1FQmRq6RNGP7PM8Wi6HIJ8DtwtqTPIMqdJb4V0ekFr7lySiBAk5gHgg3opkkIV8N0jCOil24BfLTBycjNt7Zh2RQbuIuUIbNuhN5BU5OsT15h7FAkHl34fJy2dagZLmv3W2i064Dxzi-DGyVVUSOVYfR6mTK4eF5Fvm3F8adxgaB7eHD2ogq2rZ2Tf80cviOx9czXWyH6AmkXLbgKzwWAZ76NGt6b9_CYxuEHsgeGlWlwQ5uGffSTQ4RajyDG4_NDKu7KLc1wx31Z9hDOCzvhxvfB9bbMcW8J3DgGjfWiMDMyWmgh1L98fWgb_iN-41W9VUnBo8vvu6yMCqvwKhiNLlhVM9iiZeqngo7RWv99cf5HzirqIFurauVzKaGX9S94FWz8dUEJb0Cvke_X5fzb960j7Y2Tm00o2n8F0QKYXTYsMITqLbJ6cS2aM9GbZjUkmqzQAd700nYV75HHaDJ_6XwbtDBS5f49gvNRnQm6qBhq3X_MiU8zj4SvJsnTO2p6k3Y58THilAJaXIeDcrKxl-PkKbhB5d9FiHiMX9KoTaYetBELvXwhRBkHg7wZasz0Uh_Ro6hrkX3hBZR3fkq3buPEsj1Syn6zxnLUratpcSBlqLzdwjzpkZjJ4wtYAlFkMbBXqxOrwNya1_bkQ39rRECGgbY2RkMtOsGJRtgItwpzs2H2hHnuPtUmGBdP8cC1Yrr_i4_5ffNfgOsBFZG9PBJO2xzUsAuajP4gAR7zSVjw7ggIyE1jSGB5ZHv3VlhSEnagmyff14AhOd72W5_MNzWy__VrCEvPkwezy_p4SaP36_-uNx81_jPfD1s1p_ElC9fSN7o6tE-HCDflmXcQ-ViCYMRUPyYvwLU0I3KwVF3E4CoMIy9bKqBu97z9LUs3YQS-HTgvqHJoJNmRmPSybnObxGc4I7x83oFG9fUc3pe5s6jyavSy8a4JcWWEqly3]--></g></svg>